<svg xmlns="http://www.w3.org/2000/svg" viewBox="0 0 476.67 66.92"><defs><style>.cls-1{fill:#7f7f77;}</style></defs><title>vb-logo</title><g id="Layer_1-2"><path class="cls-1" d="M29.23 3.17l-11.23 28.01a3.56 3.56 0 0 1-3.22 2.2h-.1a3.56 3.56 0 0 1-3.27-2.2l-11.26-28.01a2 2 0 0 1-.15-.78 2.25 2.25 0 0 1 2.2-2.15 2.1 2.1 0 0 1 2 1.32l10.49 27.08 10.54-27.08a2.08 2.08 0 0 1 1.95-1.32 2.18 2.18 0 0 1 2.2 2.15 2.16 2.16 0 0 1-.15.78zM48.75 33.38a2 2 0 0 1-2-2v-29.18a2 2 0 0 1 2.1-2 2 2 0 0 1 1.95 2v29.18a2 2 0 0 1-2.05 2zM96.87 4.64a2.11 2.11 0 0 1 .53 1.41 1.94 1.94 0 0 1-1.9 2 1.74 1.74 0 0 1-1.37-.63 11 11 0 0 0-8.13-3.81c-7.12 0-12.54 5.47-12.54 13.22s5.4 13.23 12.54 13.23a10.76 10.76 0 0 0 8.15-3.71 1.91 1.91 0 0 1 1.37-.63 2 2 0 0 1 1.9 2 2.08 2.08 0 0 1-.53 1.36 14.49 14.49 0 0 1-10.89 4.59c-9.37 0-16.73-6.83-16.73-16.84s7.34-16.83 16.73-16.83a14.27 14.27 0 0 1 10.87 4.64zM136.74 4.15h-8.89v27.23a2 2 0 0 1-4 0v-27.23h-8.85a1.78 1.78 0 0 1-1.76-1.86 1.75 1.75 0 0 1 1.76-1.75h21.77a1.77 1.77 0 0 1 1.75 1.85 1.75 1.75 0 0 1-1.78 1.76zM169.29 33.67c-9.67 0-16.16-7.22-16.16-16.84s6.49-16.83 16.16-16.83 16.15 7.22 16.15 16.83-6.54 16.84-16.15 16.84zm0-30.06c-7.32 0-12 5.61-12 13.22s4.64 13.23 12 13.23 12-5.66 12-13.23-4.73-13.22-12-13.22zM218.77 19.81l7 10.59a2.09 2.09 0 0 1 .29 1 2 2 0 0 1-2 2 1.88 1.88 0 0 1-1.61-.88l-8-12.35h-6.45v11.21a2 2 0 0 1-4 0v-27.92a2.93 2.93 0 0 1 2.86-2.92h10.14c6 0 10.2 3.8 10.2 9.81.01 5.85-3.99 9.07-8.43 9.46zm-10.77-15.66v12.44h8.54c3.86 0 6.49-2.59 6.49-6.24s-2.63-6.2-6.49-6.2zM247.8 33.38a2 2 0 0 1-2-2v-29.18a2 2 0 0 1 2.1-2 2 2 0 0 1 1.95 2v29.18a2 2 0 0 1-2.05 2zM294.41 33.38a2.1 2.1 0 0 1-2-1.32l-2.41-6.2h-16.19l-2.44 6.2a2.1 2.1 0 0 1-1.95 1.32 2.17 2.17 0 0 1-2.19-2.15 2.38 2.38 0 0 1 .14-.78l11.23-28a3.53 3.53 0 0 1 6.54 0l11.32 28a2.38 2.38 0 0 1 .14.78 2.23 2.23 0 0 1-2.19 2.15zm-12.5-28.65l-6.91 17.52h13.8zM353.6 33.09h-11.91a2.93 2.93 0 0 1-2.92-2.93v-26.7a2.92 2.92 0 0 1 2.92-2.92h11.57c5.66 0 9.13 3.41 9.13 8.29a7.41 7.41 0 0 1-5.71 7.47c3.46.53 6.34 4.1 6.34 8-.02 5.22-3.47 8.79-9.42 8.79zm-1-28.94h-9.76v10.49h9.76c3.66 0 5.61-2.25 5.61-5.22s-1.97-5.27-5.63-5.27zm.19 14.1h-9.95v11.22h9.95c3.81 0 6.05-2.14 6.05-5.61-.02-2.97-2.07-5.61-6.07-5.61zM406.35 33.38a2.1 2.1 0 0 1-2-1.32l-2.35-6.2h-16.2l-2.44 6.2a2.1 2.1 0 0 1-1.95 1.32 2.18 2.18 0 0 1-2.2-2.15 2.16 2.16 0 0 1 .15-.78l11.22-28a3.54 3.54 0 0 1 3.32-2.2 3.48 3.48 0 0 1 3.22 2.2l11.32 28a2.16 2.16 0 0 1 .15.78 2.24 2.24 0 0 1-2.24 2.15zm-12.49-28.65l-6.93 17.52h13.81zM427.92 33.38a2 2 0 0 1-2-2v-29.18a2 2 0 0 1 2.1-2 2 2 0 0 1 2 2v29.18a2 2 0 0 1-2.1 2zM474.23 33.38a2.46 2.46 0 0 1-2-1l-18.44-25.26v24.26a2 2 0 0 1-4.05 0v-28.7a2.51 2.51 0 0 1 2.58-2.44 2.65 2.65 0 0 1 2.15 1.08l18.15 24.68v-23.8a2 2 0 0 1 2.1-2 2 2 0 0 1 1.95 2v28.88a2.35 2.35 0 0 1-2.44 2.3zM78.59 66.69h-6.67a1.16 1.16 0 0 1-1.15-1.16v-10.53a1.16 1.16 0 0 1 1.15-1.15h6.67a.7.7 0 0 1 .69.73.69.69 0 0 1-.69.69h-6.22v4.13h6.08a.69.69 0 0 1 .69.73.69.69 0 0 1-.69.69h-6.08v4.42h6.22a.69.69 0 0 1 .69.69.7.7 0 0 1-.69.76zM100 66.8a.77.77 0 0 1-.78-.79v-9.86l-4.3 10.4a.41.41 0 0 1-.41.25.38.38 0 0 1-.36-.25l-4.28-10.4v9.85a.78.78 0 0 1-.81.79.77.77 0 0 1-.78-.79v-10.93a1.31 1.31 0 0 1 1.32-1.28 1.39 1.39 0 0 1 1.27.8l3.66 8.93 3.69-8.93a1.37 1.37 0 0 1 1.27-.8 1.31 1.31 0 0 1 1.32 1.28v10.93a.78.78 0 0 1-.81.8zM116.12 66.69h-4.68a1.15 1.15 0 0 1-1.15-1.16v-10.53a1.15 1.15 0 0 1 1.15-1.15h4.56c2.22 0 3.59 1.35 3.59 3.27a2.91 2.91 0 0 1-2.25 2.93 3.2 3.2 0 0 1 2.5 3.15c-.01 2.08-1.38 3.49-3.72 3.49zm-.4-11.39h-3.84v4.13h3.84a2 2 0 0 0 2.21-2 2 2 0 0 0-2.21-2.13zm.08 5.55h-3.92v4.42h3.92a2.12 2.12 0 0 0 2.38-2.21 2.18 2.18 0 0 0-2.38-2.21zM134.71 61.47l2.74 4.16a.77.77 0 0 1 .12.4.79.79 0 0 1-.79.77.73.73 0 0 1-.63-.34l-3.15-4.86h-2.56v4.4a.8.8 0 0 1-1.59 0v-11a1.16 1.16 0 0 1 1.15-1.12h4a3.73 3.73 0 0 1 4 3.86 3.55 3.55 0 0 1-3.29 3.73zm-4.25-6.17v4.9h3.36a2.45 2.45 0 1 0 0-4.9zM152.91 66.92c-3.8 0-6.36-2.84-6.36-6.63s2.56-6.62 6.36-6.62 6.35 2.84 6.35 6.62-2.57 6.63-6.35 6.63zm0-11.83c-2.88 0-4.7 2.21-4.7 5.2s1.82 5.21 4.7 5.21 4.7-2.23 4.7-5.21-1.84-5.2-4.7-5.2zM169.06 66.8a.78.78 0 0 1-.79-.79v-11.47a.79.79 0 0 1 .83-.77.76.76 0 0 1 .76.77v11.46a.78.78 0 0 1-.8.8zM183.76 66.69h-3.22a1.15 1.15 0 0 1-1.15-1.16v-10.53a1.15 1.15 0 0 1 1.15-1.15h3.22a6.41 6.41 0 1 1 0 12.81zm0-11.39h-2.76v10h2.78a5 5 0 0 0 0-10zM207.15 66.69h-6.66a1.16 1.16 0 0 1-1.16-1.16v-10.53a1.16 1.16 0 0 1 1.16-1.15h6.66a.7.7 0 0 1 .69.73.69.69 0 0 1-.69.69h-6.22v4.13h6.07a.69.69 0 0 1 .69.73.69.69 0 0 1-.69.69h-6.08v4.42h6.22a.69.69 0 0 1 .69.69.7.7 0 0 1-.68.76zM222.62 61.47l2.75 4.16a.86.86 0 0 1 .11.4.78.78 0 0 1-.78.77.76.76 0 0 1-.64-.34l-3.13-4.86h-2.55v4.4a.8.8 0 0 1-1.59 0v-11a1.16 1.16 0 0 1 1.15-1.15h4a3.73 3.73 0 0 1 4 3.86 3.55 3.55 0 0 1-3.32 3.76zm-4.24-6.17v4.9h3.36a2.45 2.45 0 1 0 0-4.9zM242.8 66.69h-6.66a1.16 1.16 0 0 1-1.14-1.16v-10.53a1.16 1.16 0 0 1 1.15-1.15h6.66a.69.69 0 0 1 .69.73.68.68 0 0 1-.69.69h-6.22v4.13h6.09a.7.7 0 0 1 .69.73.69.69 0 0 1-.69.69h-6.09v4.42h6.22a.68.68 0 0 1 .69.69.69.69 0 0 1-.7.76zM256.82 66.69h-3.23a1.16 1.16 0 0 1-1.15-1.16v-10.53a1.16 1.16 0 0 1 1.15-1.15h3.23a6.41 6.41 0 1 1 0 12.81zm0-11.39h-2.82v10h2.79a5 5 0 0 0 0-10zM292.15 55.3h-3.5v10.7a.8.8 0 0 1-1.59 0v-10.7h-3.48a.71.71 0 0 1 0-1.42h8.57a.7.7 0 0 1 .69.73.69.69 0 0 1-.69.69zM309.18 66.69h-6.67a1.16 1.16 0 0 1-1.15-1.16v-10.53a1.16 1.16 0 0 1 1.15-1.15h6.67a.7.7 0 0 1 .69.73.69.69 0 0 1-.69.69h-6.18v4.13h6a.69.69 0 0 1 .69.73.69.69 0 0 1-.69.69h-6v4.42h6.22a.69.69 0 0 1 .69.69.7.7 0 0 1-.73.76zM328.13 66.82a.69.69 0 0 1-.58-.29l-4-5.3-4 5.3a.68.68 0 0 1-.57.29.76.76 0 0 1-.77-.77.74.74 0 0 1 .15-.46l4.15-5.47-3.83-5.12a.83.83 0 0 1-.15-.44.78.78 0 0 1 .77-.77.79.79 0 0 1 .61.3l3.67 4.91 3.66-4.95a.68.68 0 0 1 .58-.29.79.79 0 0 1 .79.77.74.74 0 0 1-.14.44l-3.86 5.12 4.15 5.49a.8.8 0 0 1 .13.44.78.78 0 0 1-.76.8zM346.12 55.3h-3.5v10.7a.8.8 0 0 1-1.62 0v-10.7h-3.48a.71.71 0 0 1 0-1.42h8.57a.7.7 0 0 1 .69.73.69.69 0 0 1-.66.69zM356.12 66.8a.78.78 0 0 1-.79-.79v-11.47a.79.79 0 0 1 .83-.77.77.77 0 0 1 .77.77v11.46a.78.78 0 0 1-.81.8zM373.42 66.69h-5.82a1.16 1.16 0 0 1-1.15-1.16v-11a.79.79 0 0 1 .83-.77.76.76 0 0 1 .76.77v10.74h5.38a.69.69 0 0 1 .69.69.7.7 0 0 1-.69.73zM390.56 66.69h-6.66a1.16 1.16 0 0 1-1.15-1.16v-10.53a1.16 1.16 0 0 1 1.15-1.15h6.66a.69.69 0 0 1 .69.73.68.68 0 0 1-.69.69h-6.22v4.13h6.09a.7.7 0 0 1 .69.73.69.69 0 0 1-.69.69h-6.09v4.42h6.22a.68.68 0 0 1 .69.69.69.69 0 0 1-.69.76zM404.35 66.92a6.63 6.63 0 0 1-4.49-1.6.75.75 0 0 1-.25-.57.79.79 0 0 1 .75-.81.74.74 0 0 1 .46.15 5.36 5.36 0 0 0 3.59 1.41c2.28 0 3-1.23 3-2.21 0-3.3-7.58-1.48-7.58-6 0-2.11 1.88-3.55 4.39-3.55a6.33 6.33 0 0 1 4.11 1.36.77.77 0 0 1 .27.58.79.79 0 0 1-.75.77.72.72 0 0 1-.46-.18 5.18 5.18 0 0 0-3.28-1.11c-1.54 0-2.63.83-2.63 2 0 2.87 7.58 1.22 7.58 6 .01 1.84-1.25 3.76-4.71 3.76z"/></g></svg>